<svg width="152" height="124" viewBox="0 0 152 124" fill="none" xmlns="http://www.w3.org/2000/svg">
<circle cx="76" cy="58" r="52" fill="#EAECF0"/>
<circle cx="21" cy="25" r="5" fill="#F2F4F7"/>
<circle cx="18" cy="109" r="7" fill="#F2F4F7"/>
<circle cx="145" cy="41" r="7" fill="#F2F4F7"/>
<circle cx="134" cy="14" r="4" fill="#F2F4F7"/>
<g filter="url(#filter0_b_4511_7648)">
<rect x="52" y="34" width="48" height="48" rx="24" fill="#344054" fill-opacity="0.4"/>
<path d="M83.4626 49.9942C80.7809 48.3492 78.4404 49.0121 77.0344 50.068C76.4578 50.501 76.1696 50.7174 76 50.7174C75.8304 50.7174 75.5422 50.501 74.9656 50.068C73.5596 49.0121 71.2191 48.3492 68.5374 49.9942C65.0181 52.1529 64.2217 59.2749 72.3395 65.2834C73.8857 66.4278 74.6588 67 76 67C77.3412 67 78.1143 66.4278 79.6605 65.2834C87.7783 59.2749 86.9819 52.1529 83.4626 49.9942Z" stroke="white" stroke-width="1.5" stroke-linecap="round"/>
</g>
<defs>
<filter id="filter0_b_4511_7648" x="44" y="26" width="64" height="64" filterUnits="userSpaceOnUse" color-interpolation-filters="sRGB">
<feFlood flood-opacity="0" result="BackgroundImageFix"/>
<feGaussianBlur in="BackgroundImageFix" stdDeviation="4"/>
<feComposite in2="SourceAlpha" operator="in" result="effect1_backgroundBlur_4511_7648"/>
<feBlend mode="normal" in="SourceGraphic" in2="effect1_backgroundBlur_4511_7648" result="shape"/>
</filter>
</defs>
</svg>
