<svg width="17" height="18" viewBox="0 0 17 18" fill="none" xmlns="http://www.w3.org/2000/svg">
<path d="M6.05137 3.02194L1.19926 7.26778C0.783166 7.63192 1.06215 8.27858 1.63532 8.27858C1.98549 8.27858 2.26937 8.54075 2.26937 8.86425V11.5672C2.26937 13.8925 2.26937 15.0552 3.05147 15.7776C3.83357 16.5 5.09235 16.5 7.60992 16.5H9.39008C11.9077 16.5 13.1664 16.5 13.9485 15.7776C14.7307 15.0552 14.7307 13.8925 14.7307 11.5672V8.86425C14.7307 8.54075 15.0145 8.27858 15.3647 8.27858C15.9378 8.27858 16.2168 7.63192 15.8008 7.26778L10.9486 3.02194C9.78908 2.00732 9.20933 1.5 8.5 1.5C7.79067 1.5 7.21092 2.00732 6.05137 3.02194Z" stroke="#555555" stroke-width="1.5"/>
</svg>
