<svg width="152" height="124" viewBox="0 0 152 124" fill="none" xmlns="http://www.w3.org/2000/svg">
<circle cx="76" cy="58" r="52" fill="#EAECF0"/>
<circle cx="21" cy="25" r="5" fill="#F2F4F7"/>
<circle cx="18" cy="109" r="7" fill="#F2F4F7"/>
<circle cx="145" cy="41" r="7" fill="#F2F4F7"/>
<circle cx="134" cy="14" r="4" fill="#F2F4F7"/>
<g filter="url(#filter0_b_4511_7393)">
<rect x="52" y="34" width="48" height="48" rx="24" fill="#344054" fill-opacity="0.4"/>
<path d="M86 59.5V54H66V59.4286C66 63.4692 66 65.4895 67.3017 66.7447C68.508 67.9079 70.3955 67.9932 74 67.9995" stroke="white" stroke-width="2" stroke-linecap="round" stroke-linejoin="round"/>
<path d="M81 64.5H81.009" stroke="white" stroke-width="2" stroke-linecap="round" stroke-linejoin="round"/>
<path d="M85.772 64.0225C85.924 64.2357 86 64.3422 86 64.5C86 64.6578 85.924 64.7643 85.772 64.9775C85.089 65.9353 83.3446 68 81 68C78.6554 68 76.911 65.9353 76.228 64.9775C76.076 64.7643 76 64.6578 76 64.5C76 64.3422 76.076 64.2357 76.228 64.0225C76.911 63.0647 78.6554 61 81 61C83.3446 61 85.089 63.0647 85.772 64.0225Z" stroke="white" stroke-width="1.5"/>
<path d="M66 54L66.9615 51.6923C67.7073 49.9026 68.0801 49.0077 68.8359 48.5038C69.5917 48 70.5611 48 72.5 48H79.5C81.4389 48 82.4083 48 83.1641 48.5038C83.9199 49.0077 84.2927 49.9026 85.0385 51.6923L86 54" stroke="white" stroke-width="1.5" stroke-linecap="round"/>
<path d="M76 54V48" stroke="white" stroke-width="1.5" stroke-linecap="round"/>
<path d="M74 58H78" stroke="white" stroke-width="1.5" stroke-linecap="round"/>
</g>
<defs>
<filter id="filter0_b_4511_7393" x="44" y="26" width="64" height="64" filterUnits="userSpaceOnUse" color-interpolation-filters="sRGB">
<feFlood flood-opacity="0" result="BackgroundImageFix"/>
<feGaussianBlur in="BackgroundImageFix" stdDeviation="4"/>
<feComposite in2="SourceAlpha" operator="in" result="effect1_backgroundBlur_4511_7393"/>
<feBlend mode="normal" in="SourceGraphic" in2="effect1_backgroundBlur_4511_7393" result="shape"/>
</filter>
</defs>
</svg>
